# MagicaVoxel @ Ephtracy

# group
o 

# material
mtllib ground.mtl
usemtl palette

# normals
vn 1 0 0
vn -1 0 0
vn 0 0 -1
vn 0 0 1
vn 0 -1 0
vn 0 1 0

# texcoords
vt 0.0214844 0.5
vt 0.373047 0.5
vt 0.720703 0.5
vt 0.841797 0.5

# verts
v 0 0 0
v 0 0 0.3
v 0 0 3
v 0 0.2 0
v 0 0.2 0.3
v 0 0.2 3
v -3 0 0
v -3 0 0.3
v -3 0 3
v -3 0.2 0
v -3 0.2 0.3
v -3 0.2 3
v 0 0 0
v 0 0.2 0
v -0.3 0 0
v -0.3 0.2 0
v -3 0 0
v -3 0.2 0
v 0 0 3
v 0 0.2 3
v -0.3 0 3
v -0.3 0.2 3
v -3 0 3
v -3 0.2 3
v 0 0 0
v -0.3 0 0
v -3 0 0
v 0 0 0.3
v -0.3 0 0.3
v -3 0 0.3
v 0 0 3
v -0.3 0 3
v -3 0 3
v 0 0.2 0
v -0.3 0.2 0
v -3 0.2 0
v 0 0.2 0.3
v -0.3 0.2 0.3
v -3 0.2 0.3
v 0 0.2 3
v -0.3 0.2 3
v -3 0.2 3

# faces
f 4/4/1 2/4/1 1/4/1
f 5/3/1 3/3/1 2/3/1
f 5/4/1 2/4/1 4/4/1
f 6/3/1 3/3/1 5/3/1
f 7/1/2 8/1/2 10/1/2
f 8/2/2 9/2/2 11/2/2
f 10/1/2 8/1/2 11/1/2
f 11/2/2 9/2/2 12/2/2
f 15/4/3 14/4/3 13/4/3
f 16/4/3 14/4/3 15/4/3
f 17/1/3 16/1/3 15/1/3
f 18/1/3 16/1/3 17/1/3
f 19/3/4 20/3/4 21/3/4
f 21/3/4 20/3/4 22/3/4
f 21/2/4 22/2/4 23/2/4
f 23/2/4 22/2/4 24/2/4
f 28/4/5 26/4/5 25/4/5
f 29/1/5 27/1/5 26/1/5
f 29/4/5 26/4/5 28/4/5
f 30/1/5 27/1/5 29/1/5
f 31/3/5 29/3/5 28/3/5
f 32/2/5 30/2/5 29/2/5
f 32/3/5 29/3/5 31/3/5
f 33/2/5 30/2/5 32/2/5
f 34/4/6 35/4/6 37/4/6
f 35/1/6 36/1/6 38/1/6
f 37/4/6 35/4/6 38/4/6
f 38/1/6 36/1/6 39/1/6
f 37/3/6 38/3/6 40/3/6
f 38/2/6 39/2/6 41/2/6
f 40/3/6 38/3/6 41/3/6
f 41/2/6 39/2/6 42/2/6
